<svg xmlns="http://www.w3.org/2000/svg" viewBox="0 0 256 256" role="img" aria-labelledby="title">
  <title id="title">TPbuzz TP mark</title>
  <defs>
    <linearGradient id="badge" x1="0" y1="0" x2="1" y2="1">
      <stop offset="0" stop-color="#0a1930"/>
      <stop offset=".56" stop-color="#123a5a"/>
      <stop offset="1" stop-color="#25759a"/>
    </linearGradient>
  </defs>
  <rect width="256" height="256" rx="58" fill="url(#badge)"/>
  <rect x="43" y="53" width="105" height="28" rx="14" fill="#fff"/>
  <rect x="79" y="53" width="30" height="148" rx="15" fill="#fff"/>
  <path fill="#fff" d="M128 53h57c31 0 51 20 51 51s-21 52-52 52h-26v45c0 8-7 15-15 15s-15-7-15-15V53Zm30 29v45h25c14 0 22-9 22-23 0-13-8-22-22-22h-25Z"/>
</svg>
